<svg xmlns="http://www.w3.org/2000/svg" xmlns:xlink="http://www.w3.org/1999/xlink" width="1584" zoomAndPan="magnify" viewBox="0 0 1188 296.999993" height="396" preserveAspectRatio="xMidYMid meet" version="1.0"><defs><g/><clipPath id="41b4812db1"><path d="M 29.699219 0.00390625 L 164.699219 0.00390625 L 164.699219 141.75 L 29.699219 141.75 Z M 29.699219 0.00390625 " clip-rule="nonzero"/></clipPath><clipPath id="aeb02c5174"><path d="M 164.605469 21.753906 L 164.605469 119.621094 C 164.605469 131.632812 154.867188 141.371094 142.855469 141.371094 L 51.449219 141.371094 C 39.4375 141.371094 29.699219 131.632812 29.699219 119.621094 L 29.699219 21.753906 C 29.699219 9.742188 39.4375 0.00390625 51.449219 0.00390625 L 142.855469 0.00390625 C 154.867188 0.00390625 164.605469 9.742188 164.605469 21.753906 Z M 164.605469 21.753906 " clip-rule="nonzero"/></clipPath><clipPath id="86d48c114f"><path d="M 177.214844 0 L 312.214844 0 L 312.214844 141.75 L 177.214844 141.75 Z M 177.214844 0 " clip-rule="nonzero"/></clipPath><clipPath id="60eae4e234"><path d="M 198.964844 0 L 290.371094 0 C 302.382812 0 312.121094 9.738281 312.121094 21.75 L 312.121094 119.636719 C 312.121094 131.648438 302.382812 141.386719 290.371094 141.386719 L 198.964844 141.386719 C 186.953125 141.386719 177.214844 131.648438 177.214844 119.636719 L 177.214844 21.75 C 177.214844 9.738281 186.953125 0 198.964844 0 Z M 198.964844 0 " clip-rule="nonzero"/></clipPath><clipPath id="9f6d5da929"><path d="M 29.699219 155.613281 L 164.699219 155.613281 L 164.699219 297 L 29.699219 297 Z M 29.699219 155.613281 " clip-rule="nonzero"/></clipPath><clipPath id="798c5e26b1"><path d="M 51.449219 155.613281 L 142.855469 155.613281 C 154.867188 155.613281 164.605469 165.351562 164.605469 177.363281 L 164.605469 275.25 C 164.605469 287.261719 154.867188 297 142.855469 297 L 51.449219 297 C 39.4375 297 29.699219 287.261719 29.699219 275.25 L 29.699219 177.363281 C 29.699219 165.351562 39.4375 155.613281 51.449219 155.613281 Z M 51.449219 155.613281 " clip-rule="nonzero"/></clipPath><clipPath id="46418e69ca"><path d="M 177.214844 155.613281 L 312.125 155.613281 L 312.125 297 L 177.214844 297 Z M 177.214844 155.613281 " clip-rule="nonzero"/></clipPath><clipPath id="e3e5ebe411"><path d="M 198.964844 155.613281 L 290.375 155.613281 C 302.386719 155.613281 312.125 165.351562 312.125 177.363281 L 312.125 275.25 C 312.125 287.261719 302.386719 297 290.375 297 L 198.964844 297 C 186.953125 297 177.214844 287.261719 177.214844 275.25 L 177.214844 177.363281 C 177.214844 165.351562 186.953125 155.613281 198.964844 155.613281 Z M 198.964844 155.613281 " clip-rule="nonzero"/></clipPath><clipPath id="6746783466"><path d="M 0.214844 0.613281 L 135.125 0.613281 L 135.125 142 L 0.214844 142 Z M 0.214844 0.613281 " clip-rule="nonzero"/></clipPath><clipPath id="05b423f618"><path d="M 21.964844 0.613281 L 113.375 0.613281 C 125.386719 0.613281 135.125 10.351562 135.125 22.363281 L 135.125 120.25 C 135.125 132.261719 125.386719 142 113.375 142 L 21.964844 142 C 9.953125 142 0.214844 132.261719 0.214844 120.25 L 0.214844 22.363281 C 0.214844 10.351562 9.953125 0.613281 21.964844 0.613281 Z M 21.964844 0.613281 " clip-rule="nonzero"/></clipPath><clipPath id="83bf72acdd"><rect x="0" width="136" y="0" height="142"/></clipPath><clipPath id="c0ca8c6a73"><path d="M 177.214844 155.613281 L 312.214844 155.613281 L 312.214844 297 L 177.214844 297 Z M 177.214844 155.613281 " clip-rule="nonzero"/></clipPath><clipPath id="9550c9c1aa"><path d="M 198.964844 155.613281 L 290.371094 155.613281 C 302.382812 155.613281 312.121094 165.351562 312.121094 177.363281 L 312.121094 275.25 C 312.121094 287.261719 302.382812 297 290.371094 297 L 198.964844 297 C 186.953125 297 177.214844 287.261719 177.214844 275.25 L 177.214844 177.363281 C 177.214844 165.351562 186.953125 155.613281 198.964844 155.613281 Z M 198.964844 155.613281 " clip-rule="nonzero"/></clipPath></defs><g fill="#ffffff" fill-opacity="1"><g transform="translate(344.63, 193.663831)"><g><path d="M 72.5625 0 L 8.546875 0 L 8.546875 -95.953125 L 72.5625 -95.953125 L 72.5625 -79.734375 L 26.65625 -79.734375 L 26.65625 -56.09375 L 67.78125 -56.09375 L 67.78125 -40 L 26.65625 -40 L 26.65625 -16.21875 L 72.5625 -16.21875 Z M 72.5625 0 "/></g></g></g><g fill="#ffffff" fill-opacity="1"><g transform="translate(416.435057, 193.663831)"><g><path d="M 21 0 L 1.640625 0 L 25.78125 -35.59375 L 1.515625 -70.546875 L 21 -70.546875 L 36.34375 -46.90625 L 52.0625 -70.546875 L 71.8125 -70.546875 L 47.03125 -35.59375 L 71.6875 0 L 52.0625 0 L 36.46875 -24.015625 Z M 21 0 "/></g></g></g><g fill="#ffffff" fill-opacity="1"><g transform="translate(483.335703, 193.663831)"><g><path d="M 44.765625 -71.9375 C 50.972656 -71.9375 56.40625 -70.382812 61.0625 -67.28125 C 65.71875 -64.175781 69.34375 -59.859375 71.9375 -54.328125 C 74.539062 -48.796875 75.84375 -42.425781 75.84375 -35.21875 C 75.84375 -28.007812 74.539062 -21.632812 71.9375 -16.09375 C 69.34375 -10.5625 65.71875 -6.242188 61.0625 -3.140625 C 56.40625 -0.0351562 50.972656 1.515625 44.765625 1.515625 C 40.660156 1.515625 37.015625 0.78125 33.828125 -0.6875 C 30.640625 -2.15625 27.625 -4.898438 24.78125 -8.921875 L 24.78125 25.40625 L 7.796875 25.40625 L 7.796875 -70.546875 L 24.78125 -70.546875 L 24.78125 -61.625 C 27.625 -65.5625 30.640625 -68.265625 33.828125 -69.734375 C 37.015625 -71.203125 40.660156 -71.9375 44.765625 -71.9375 Z M 40.875 -57.34375 C 35.507812 -57.34375 31.128906 -55.289062 27.734375 -51.1875 C 24.335938 -47.082031 22.640625 -41.757812 22.640625 -35.21875 C 22.640625 -28.675781 24.335938 -23.347656 27.734375 -19.234375 C 31.128906 -15.128906 35.507812 -13.078125 40.875 -13.078125 C 46.320312 -13.078125 50.660156 -15.171875 53.890625 -19.359375 C 57.117188 -23.554688 58.734375 -28.84375 58.734375 -35.21875 C 58.734375 -41.664062 57.117188 -46.960938 53.890625 -51.109375 C 50.660156 -55.265625 46.320312 -57.34375 40.875 -57.34375 Z M 40.875 -57.34375 "/></g></g></g><g fill="#ffffff" fill-opacity="1"><g transform="translate(557.907346, 193.663831)"><g><path d="M 40.875 1.390625 C 33.832031 1.390625 27.582031 -0.160156 22.125 -3.265625 C 16.675781 -6.367188 12.421875 -10.707031 9.359375 -16.28125 C 6.304688 -21.863281 4.78125 -28.34375 4.78125 -35.71875 C 4.78125 -42.84375 6.304688 -49.128906 9.359375 -54.578125 C 12.421875 -60.023438 16.65625 -64.300781 22.0625 -67.40625 C 27.476562 -70.507812 33.75 -72.0625 40.875 -72.0625 C 48 -72.0625 54.285156 -70.507812 59.734375 -67.40625 C 65.179688 -64.300781 69.4375 -60.023438 72.5 -54.578125 C 75.5625 -49.128906 77.09375 -42.84375 77.09375 -35.71875 C 77.09375 -28.425781 75.582031 -21.988281 72.5625 -16.40625 C 69.550781 -10.832031 65.316406 -6.472656 59.859375 -3.328125 C 54.410156 -0.179688 48.082031 1.390625 40.875 1.390625 Z M 40.875 -13.203125 C 46.40625 -13.203125 50.890625 -15.296875 54.328125 -19.484375 C 57.765625 -23.679688 59.484375 -29.09375 59.484375 -35.71875 C 59.484375 -39.90625 58.707031 -43.632812 57.15625 -46.90625 C 55.601562 -50.175781 53.441406 -52.753906 50.671875 -54.640625 C 47.910156 -56.523438 44.644531 -57.46875 40.875 -57.46875 C 37.269531 -57.46875 34.039062 -56.546875 31.1875 -54.703125 C 28.332031 -52.859375 26.109375 -50.300781 24.515625 -47.03125 C 22.929688 -43.757812 22.140625 -39.988281 22.140625 -35.71875 C 22.140625 -29.007812 23.898438 -23.578125 27.421875 -19.421875 C 30.941406 -15.273438 35.425781 -13.203125 40.875 -13.203125 Z M 40.875 -13.203125 "/></g></g></g><g fill="#18b67d" fill-opacity="1"><g transform="translate(633.614356, 193.663831)"><g><path d="M 67.28125 0 L 8.546875 0 L 8.546875 -95.953125 L 26.65625 -95.953125 L 26.65625 -16.21875 L 67.28125 -16.21875 Z M 67.28125 0 "/></g></g></g><g fill="#18b67d" fill-opacity="1"><g transform="translate(695.233314, 193.663831)"><g><path d="M 40.75 1.390625 C 33.539062 1.390625 27.226562 -0.179688 21.8125 -3.328125 C 16.40625 -6.472656 12.210938 -10.769531 9.234375 -16.21875 C 6.265625 -21.675781 4.78125 -27.882812 4.78125 -34.84375 C 4.78125 -39.445312 5.492188 -43.96875 6.921875 -48.40625 C 8.347656 -52.851562 10.523438 -56.859375 13.453125 -60.421875 C 16.390625 -63.992188 20.078125 -66.828125 24.515625 -68.921875 C 28.960938 -71.015625 34.207031 -72.0625 40.25 -72.0625 C 44.769531 -72.0625 49.144531 -71.347656 53.375 -69.921875 C 57.613281 -68.492188 61.410156 -66.289062 64.765625 -63.3125 C 68.117188 -60.34375 70.78125 -56.550781 72.75 -51.9375 C 74.71875 -47.332031 75.703125 -41.84375 75.703125 -35.46875 L 75.703125 -31.8125 L 22.390625 -31.8125 C 22.554688 -30.3125 22.890625 -28.828125 23.390625 -27.359375 C 23.890625 -25.890625 24.4375 -24.609375 25.03125 -23.515625 C 26.707031 -20.242188 28.945312 -17.707031 31.75 -15.90625 C 34.5625 -14.101562 37.769531 -13.203125 41.375 -13.203125 C 45.394531 -13.203125 48.769531 -14.25 51.5 -16.34375 C 54.226562 -18.445312 56.132812 -20.921875 57.21875 -23.765625 L 74.578125 -23.765625 C 73.234375 -19.242188 71.09375 -15.070312 68.15625 -11.25 C 65.226562 -7.4375 61.5 -4.375 56.96875 -2.0625 C 52.445312 0.238281 47.039062 1.390625 40.75 1.390625 Z M 23.140625 -44.515625 L 58.359375 -44.515625 C 58.273438 -45.441406 58.039062 -46.488281 57.65625 -47.65625 C 57.28125 -48.832031 56.632812 -49.96875 55.71875 -51.0625 C 54.125 -53.570312 52.003906 -55.457031 49.359375 -56.71875 C 46.722656 -57.976562 43.851562 -58.609375 40.75 -58.609375 C 37.644531 -58.609375 34.8125 -57.976562 32.25 -56.71875 C 29.695312 -55.457031 27.582031 -53.570312 25.90625 -51.0625 C 24.988281 -49.96875 24.335938 -48.832031 23.953125 -47.65625 C 23.578125 -46.488281 23.304688 -45.441406 23.140625 -44.515625 Z M 23.140625 -44.515625 "/></g></g></g><g fill="#18b67d" fill-opacity="1"><g transform="translate(769.42769, 193.663831)"><g><path d="M 28.046875 1.390625 C 21.421875 1.390625 15.90625 -0.390625 11.5 -3.953125 C 7.101562 -7.523438 4.90625 -12.664062 4.90625 -19.375 C 4.90625 -23.144531 5.640625 -26.347656 7.109375 -28.984375 C 8.578125 -31.628906 10.523438 -33.789062 12.953125 -35.46875 C 15.210938 -37.0625 17.789062 -38.316406 20.6875 -39.234375 C 23.582031 -40.160156 26.492188 -40.914062 29.421875 -41.5 L 50.4375 -45.40625 C 50.269531 -49.757812 49.132812 -53.070312 47.03125 -55.34375 C 44.9375 -57.601562 41.796875 -58.734375 37.609375 -58.734375 C 34.421875 -58.734375 31.585938 -57.789062 29.109375 -55.90625 C 26.640625 -54.019531 25.070312 -51.398438 24.40625 -48.046875 L 7.546875 -48.046875 C 8.378906 -53.578125 10.304688 -58.101562 13.328125 -61.625 C 16.347656 -65.144531 20.015625 -67.765625 24.328125 -69.484375 C 28.648438 -71.203125 33.117188 -72.0625 37.734375 -72.0625 C 41.835938 -72.0625 45.773438 -71.472656 49.546875 -70.296875 C 53.328125 -69.128906 56.515625 -67.328125 59.109375 -64.890625 C 61.878906 -62.460938 63.847656 -59.675781 65.015625 -56.53125 C 66.191406 -53.382812 66.882812 -50.113281 67.09375 -46.71875 C 67.300781 -43.320312 67.40625 -39.988281 67.40625 -36.71875 L 67.40625 0 L 50.4375 0 L 50.4375 -9.5625 C 48.675781 -6.457031 46.535156 -4.109375 44.015625 -2.515625 C 41.835938 -1.085938 39.382812 -0.0820312 36.65625 0.5 C 33.9375 1.09375 31.066406 1.390625 28.046875 1.390625 Z M 32.203125 -11.953125 C 35.554688 -11.953125 38.570312 -12.617188 41.25 -13.953125 C 44.9375 -15.804688 47.429688 -18.28125 48.734375 -21.375 C 50.035156 -24.476562 50.726562 -28.335938 50.8125 -32.953125 L 33.953125 -29.5625 C 31.523438 -29.132812 29.535156 -28.582031 27.984375 -27.90625 C 26.429688 -27.238281 25.148438 -26.445312 24.140625 -25.53125 C 23.472656 -24.863281 22.929688 -24.066406 22.515625 -23.140625 C 22.097656 -22.210938 21.890625 -21.164062 21.890625 -20 C 21.890625 -17.394531 22.875 -15.398438 24.84375 -14.015625 C 26.8125 -12.640625 29.265625 -11.953125 32.203125 -11.953125 Z M 32.203125 -11.953125 "/></g></g></g><g fill="#18b67d" fill-opacity="1"><g transform="translate(837.460122, 193.663831)"><g><path d="M 36.09375 1.390625 C 29.96875 1.390625 24.554688 -0.160156 19.859375 -3.265625 C 15.171875 -6.367188 11.523438 -10.6875 8.921875 -16.21875 C 6.328125 -21.757812 5.03125 -28.132812 5.03125 -35.34375 C 5.03125 -42.550781 6.328125 -48.921875 8.921875 -54.453125 C 11.523438 -59.984375 15.171875 -64.300781 19.859375 -67.40625 C 24.554688 -70.507812 29.96875 -72.0625 36.09375 -72.0625 C 40.289062 -72.0625 43.957031 -71.328125 47.09375 -69.859375 C 50.238281 -68.390625 53.238281 -65.644531 56.09375 -61.625 L 56.09375 -95.953125 L 73.0625 -95.953125 L 73.0625 0 L 56.09375 0 L 56.09375 -8.921875 C 53.238281 -4.984375 50.238281 -2.28125 47.09375 -0.8125 C 43.957031 0.65625 40.289062 1.390625 36.09375 1.390625 Z M 40 -13.203125 C 45.445312 -13.203125 49.847656 -15.253906 53.203125 -19.359375 C 56.554688 -23.472656 58.234375 -28.800781 58.234375 -35.34375 C 58.234375 -41.882812 56.554688 -47.207031 53.203125 -51.3125 C 49.847656 -55.414062 45.445312 -57.46875 40 -57.46875 C 34.625 -57.46875 30.300781 -55.394531 27.03125 -51.25 C 23.769531 -47.101562 22.140625 -41.800781 22.140625 -35.34375 C 22.140625 -28.96875 23.769531 -23.679688 27.03125 -19.484375 C 30.300781 -15.296875 34.625 -13.203125 40 -13.203125 Z M 40 -13.203125 "/></g></g></g><g fill="#000000" fill-opacity="1"><g transform="translate(912.040123, 193.663831)"><g/></g></g><g fill="#b4b4b4" fill-opacity="1"><g transform="translate(939.461997, 193.663831)"><g><path d="M 51.4375 1.765625 C 43.550781 1.765625 36.675781 0.425781 30.8125 -2.25 C 24.945312 -4.9375 20.101562 -8.585938 16.28125 -13.203125 C 12.46875 -17.816406 9.617188 -23.117188 7.734375 -29.109375 C 5.847656 -35.109375 4.90625 -41.421875 4.90625 -48.046875 C 4.90625 -54.671875 5.847656 -60.976562 7.734375 -66.96875 C 9.617188 -72.96875 12.46875 -78.269531 16.28125 -82.875 C 20.101562 -87.488281 24.945312 -91.113281 30.8125 -93.75 C 36.675781 -96.394531 43.550781 -97.71875 51.4375 -97.71875 C 59.40625 -97.71875 66.320312 -96.394531 72.1875 -93.75 C 78.0625 -91.113281 82.90625 -87.488281 86.71875 -82.875 C 90.53125 -78.269531 93.378906 -72.96875 95.265625 -66.96875 C 97.148438 -60.976562 98.09375 -54.671875 98.09375 -48.046875 C 98.09375 -41.421875 97.148438 -35.109375 95.265625 -29.109375 C 93.378906 -23.117188 90.53125 -17.816406 86.71875 -13.203125 C 82.90625 -8.585938 78.0625 -4.9375 72.1875 -2.25 C 66.320312 0.425781 59.40625 1.765625 51.4375 1.765625 Z M 51.4375 -14.46875 C 57.394531 -14.46875 62.425781 -15.867188 66.53125 -18.671875 C 70.632812 -21.484375 73.773438 -25.425781 75.953125 -30.5 C 78.140625 -35.570312 79.234375 -41.421875 79.234375 -48.046875 C 79.234375 -54.671875 78.140625 -60.472656 75.953125 -65.453125 C 73.773438 -70.441406 70.632812 -74.34375 66.53125 -77.15625 C 62.425781 -79.96875 57.394531 -81.375 51.4375 -81.375 C 45.65625 -81.375 40.6875 -79.96875 36.53125 -77.15625 C 32.382812 -74.34375 29.21875 -70.441406 27.03125 -65.453125 C 24.851562 -60.472656 23.765625 -54.671875 23.765625 -48.046875 C 23.765625 -41.421875 24.851562 -35.570312 27.03125 -30.5 C 29.21875 -25.425781 32.382812 -21.484375 36.53125 -18.671875 C 40.6875 -15.867188 45.65625 -14.46875 51.4375 -14.46875 Z M 51.4375 -14.46875 "/></g></g></g><g fill="#b4b4b4" fill-opacity="1"><g transform="translate(1036.292076, 193.663831)"><g><path d="M 46.65625 1.765625 C 42.039062 1.765625 37.363281 1.195312 32.625 0.0625 C 27.894531 -1.070312 23.515625 -2.894531 19.484375 -5.40625 C 15.460938 -7.925781 12.085938 -11.300781 9.359375 -15.53125 C 6.640625 -19.769531 4.988281 -24.988281 4.40625 -31.1875 L 23.140625 -31.1875 C 24.234375 -26.664062 25.992188 -23.125 28.421875 -20.5625 C 30.847656 -18.007812 33.675781 -16.226562 36.90625 -15.21875 C 40.132812 -14.207031 43.425781 -13.703125 46.78125 -13.703125 C 51.726562 -13.703125 55.878906 -14.75 59.234375 -16.84375 C 62.585938 -18.945312 64.265625 -22.300781 64.265625 -26.90625 C 64.265625 -30.257812 63.171875 -32.859375 60.984375 -34.703125 C 58.804688 -36.554688 55.976562 -38.003906 52.5 -39.046875 C 49.019531 -40.097656 45.226562 -41.039062 41.125 -41.875 C 37.1875 -42.800781 33.242188 -43.804688 29.296875 -44.890625 C 25.359375 -45.984375 21.734375 -47.492188 18.421875 -49.421875 C 15.109375 -51.347656 12.46875 -53.925781 10.5 -57.15625 C 8.53125 -60.382812 7.546875 -64.515625 7.546875 -69.546875 C 7.546875 -75.753906 9.03125 -80.929688 12 -85.078125 C 14.976562 -89.234375 19.023438 -92.378906 24.140625 -94.515625 C 29.253906 -96.648438 35.039062 -97.71875 41.5 -97.71875 C 47.707031 -97.71875 53.535156 -96.628906 58.984375 -94.453125 C 64.429688 -92.273438 69.039062 -88.960938 72.8125 -84.515625 C 76.59375 -80.066406 78.984375 -74.363281 79.984375 -67.40625 L 61.5 -67.40625 C 60.320312 -72.519531 57.867188 -76.269531 54.140625 -78.65625 C 50.410156 -81.050781 46.070312 -82.25 41.125 -82.25 C 36.59375 -82.25 32.859375 -81.304688 29.921875 -79.421875 C 26.992188 -77.535156 25.53125 -74.75 25.53125 -71.0625 C 25.53125 -68.125 26.554688 -65.816406 28.609375 -64.140625 C 30.660156 -62.460938 33.363281 -61.140625 36.71875 -60.171875 C 40.070312 -59.210938 43.679688 -58.269531 47.546875 -57.34375 C 51.566406 -56.507812 55.609375 -55.484375 59.671875 -54.265625 C 63.742188 -53.046875 67.519531 -51.410156 71 -49.359375 C 74.476562 -47.304688 77.265625 -44.5625 79.359375 -41.125 C 81.453125 -37.6875 82.5 -33.242188 82.5 -27.796875 C 82.5 -18.742188 79.351562 -11.550781 73.0625 -6.21875 C 66.78125 -0.894531 57.976562 1.765625 46.65625 1.765625 Z M 46.65625 1.765625 "/></g></g></g><g clip-path="url(#41b4812db1)"><g clip-path="url(#aeb02c5174)"><path stroke-linecap="butt" transform="matrix(0.75, 0, 0, 0.75, 29.70001, 0.000000000223517)" fill="none" stroke-linejoin="miter" d="M 179.873957 29.00521 L 179.873957 159.494802 C 179.873957 175.510428 166.889581 188.494804 150.873955 188.494804 L 28.998947 188.494804 C 12.983321 188.494804 -0.00105519 175.510428 -0.00105519 159.494802 L -0.00105519 29.00521 C -0.00105519 12.989584 12.983321 0.00520833 28.998947 0.00520833 L 150.873955 0.00520833 C 166.889581 0.00520833 179.873957 12.989584 179.873957 29.00521 Z M 179.873957 29.00521 " stroke="#ffffff" stroke-width="36" stroke-opacity="1" stroke-miterlimit="4"/></g></g><g clip-path="url(#86d48c114f)"><g clip-path="url(#60eae4e234)"><path stroke-linecap="butt" transform="matrix(0.75, 0, 0, 0.75, 177.215246, 0)" fill="none" stroke-linejoin="miter" d="M 28.999467 0 L 150.874483 0 C 166.89011 0 179.874486 12.984377 179.874486 29.000004 L 179.874486 159.515646 C 179.874486 175.531273 166.89011 188.515649 150.874483 188.515649 L 28.999467 188.515649 C 12.98384 188.515649 -0.000536919 175.531273 -0.000536919 159.515646 L -0.000536919 29.000004 C -0.000536919 12.984377 12.98384 0 28.999467 0 Z M 28.999467 0 " stroke="#ffffff" stroke-width="36" stroke-opacity="1" stroke-miterlimit="4"/></g></g><g clip-path="url(#9f6d5da929)"><g clip-path="url(#798c5e26b1)"><path stroke-linecap="butt" transform="matrix(0.75, 0, 0, 0.75, 29.70001, 155.613067)" fill="none" stroke-linejoin="miter" d="M 28.998949 0.000286135 L 150.873964 0.000286135 C 166.889591 0.000286135 179.873968 12.984663 179.873968 29.00029 L 179.873968 159.515932 C 179.873968 175.531559 166.889591 188.515935 150.873964 188.515935 L 28.998949 188.515935 C 12.983321 188.515935 -0.00105519 175.531559 -0.00105519 159.515932 L -0.00105519 29.00029 C -0.00105519 12.984663 12.983321 0.000286135 28.998949 0.000286135 Z M 28.998949 0.000286135 " stroke="#ffffff" stroke-width="36" stroke-opacity="1" stroke-miterlimit="4"/></g></g><g clip-path="url(#46418e69ca)"><g clip-path="url(#e3e5ebe411)"><g transform="matrix(1, 0, 0, 1, 177, 155)"><g clip-path="url(#83bf72acdd)"><g clip-path="url(#6746783466)"><g clip-path="url(#05b423f618)"><path fill="#18b67d" d="M 0.214844 0.613281 L 135.125 0.613281 L 135.125 141.84375 L 0.214844 141.84375 Z M 0.214844 0.613281 " fill-opacity="1" fill-rule="nonzero"/></g></g></g></g></g></g><g clip-path="url(#c0ca8c6a73)"><g clip-path="url(#9550c9c1aa)"><path stroke-linecap="butt" transform="matrix(0.75, 0, 0, 0.75, 177.215246, 155.613067)" fill="none" stroke-linejoin="miter" d="M 28.999467 0.000286135 L 150.874483 0.000286135 C 166.89011 0.000286135 179.874486 12.984663 179.874486 29.00029 L 179.874486 159.515932 C 179.874486 175.531559 166.89011 188.515935 150.874483 188.515935 L 28.999467 188.515935 C 12.98384 188.515935 -0.000536919 175.531559 -0.000536919 159.515932 L -0.000536919 29.00029 C -0.000536919 12.984663 12.98384 0.000286135 28.999467 0.000286135 Z M 28.999467 0.000286135 " stroke="#18b67d" stroke-width="18" stroke-opacity="1" stroke-miterlimit="4"/></g></g></svg>